<?xml version="1.0" encoding="UTF-8"?>
<svg version="1.1" xmlns="http://www.w3.org/2000/svg" width="500" height="500">
<path d="M0 0 C3.1058481 3.1058481 2.41998807 6.9138449 2.51953125 11.09375 C2.54601242 11.9962146 2.57249359 12.8986792 2.59977722 13.82849121 C2.65249877 15.73823096 2.7000728 17.64811866 2.74291992 19.55810547 C2.81223474 22.48878463 2.90813198 25.41780374 3.00585938 28.34765625 C3.05370576 30.20047965 3.09998269 32.05334438 3.14453125 33.90625 C3.17561478 34.78647827 3.2066983 35.66670654 3.23872375 36.5736084 C3.28051758 39.04101562 3.28051758 39.04101562 3 43 C2.01 43.66 1.02 44.32 0 45 C-0.86238281 44.47792969 -1.72476563 43.95585937 -2.61328125 43.41796875 C-10.12334919 38.88437576 -17.66796815 34.41224962 -25.25 30 C-26.07153564 29.51942139 -26.89307129 29.03884277 -27.73950195 28.54370117 C-28.51124756 28.09615479 -29.28299316 27.6486084 -30.078125 27.1875 C-30.76293945 26.78917969 -31.44775391 26.39085937 -32.15332031 25.98046875 C-34.1349151 24.86304358 -34.1349151 24.86304358 -37 24 C-39.50735388 25.07682569 -39.50735388 25.07682569 -42.19140625 26.75390625 C-43.21943359 27.36169922 -44.24746094 27.96949219 -45.30664062 28.59570312 C-46.38107422 29.24474609 -47.45550781 29.89378906 -48.5625 30.5625 C-49.60986328 31.18447266 -50.65722656 31.80644531 -51.73632812 32.44726562 C-53.83080561 33.69301761 -55.9108494 34.96336398 -57.97558594 36.2578125 C-61 38 -61 38 -63.98535156 39.0703125 C-67.23740414 40.35775155 -68.85270521 41.2098608 -71 44 C-72.67756401 50.75963608 -71.93177601 57.98701033 -71.625 64.875 C-71.57481557 66.82280332 -71.52919229 68.77072985 -71.48828125 70.71875 C-71.37830463 75.48221248 -71.20592018 80.23975902 -71 85 C-67.16048606 87.20825762 -63.31928119 89.41353702 -59.4765625 91.61621094 C-58.17272176 92.36411563 -56.86932605 93.11279678 -55.56640625 93.86230469 C-52.47203345 95.64204365 -49.3730301 97.41166623 -46.25854492 99.15600586 C-44.33385955 100.24517561 -42.42309243 101.36080419 -40.5480957 102.53344727 C-38.35392632 103.92379242 -38.35392632 103.92379242 -35 105 C-32.11349568 103.9869001 -30.57439599 103.1812806 -28.1875 101.4375 C-26.8933717 100.58244497 -25.59771856 99.72969459 -24.30078125 98.87890625 C-23.6145166 98.41500488 -22.92825195 97.95110352 -22.22119141 97.47314453 C-18.18999415 94.79956305 -14.03748723 92.33707374 -9.875 89.875 C-9.06957764 89.37798584 -8.26415527 88.88097168 -7.43432617 88.36889648 C-6.66967041 87.91458252 -5.90501465 87.46026855 -5.1171875 86.9921875 C-4.44284668 86.58339355 -3.76850586 86.17459961 -3.07373047 85.75341797 C-0.28277717 84.73942199 1.17970434 85.1156044 4 86 C6.61206055 87.3034668 6.61206055 87.3034668 9.38671875 88.94921875 C10.40830078 89.55056641 11.42988281 90.15191406 12.48242188 90.77148438 C13.54009766 91.40376953 14.59777344 92.03605469 15.6875 92.6875 C16.72583984 93.30044922 17.76417969 93.91339844 18.83398438 94.54492188 C25.24081575 98.33278519 31.62209391 102.16367218 38 106 C35.52079295 108.77339447 32.79477299 110.40788797 29.56640625 112.23046875 C28.45604004 112.86082031 27.34567383 113.49117188 26.20166016 114.140625 C24.98863401 114.8229651 23.7755799 115.50525548 22.5625 116.1875 C21.31009307 116.89662164 20.0579816 117.60626532 18.80615234 118.31640625 C16.19335523 119.79807766 13.57928508 121.27746676 10.96435547 122.75537109 C5.26325734 125.98010225 -0.42090509 129.23442292 -6.10574341 132.48770142 C-13.8336761 136.90931858 -13.8336761 136.90931858 -17.69433594 139.08984375 C-20.0691886 140.46213675 -22.39692283 141.86177879 -24.71972656 143.31640625 C-25.65270065 143.88627258 -25.65270065 143.88627258 -26.60452271 144.46765137 C-28.34890015 145.53476998 -30.08133723 146.62133578 -31.81298828 147.70898438 C-35 149 -35 149 -38.07470703 148.3972168 C-40.91234668 147.04186613 -43.64543392 145.63979424 -46.359375 144.05078125 C-47.37990967 143.4573291 -48.40044434 142.86387695 -49.4519043 142.25244141 C-50.54027588 141.61226074 -51.62864746 140.97208008 -52.75 140.3125 C-54.48826286 139.29920043 -56.22653126 138.28591023 -57.96513367 137.27319336 C-59.77079556 136.22062351 -61.57510952 135.16576778 -63.37939453 134.11083984 C-68.02612304 131.39752996 -72.69272115 128.71915686 -77.35839844 126.03857422 C-85.59953228 121.30155405 -93.83503962 116.55497483 -102 111.6875 C-102.59901123 111.33252441 -103.19802246 110.97754883 -103.81518555 110.61181641 C-106.13863359 109.2153 -108.07355349 107.92644651 -110 106 C-110.20367442 103.36608499 -110.28320184 100.83686878 -110.2746582 98.20141602 C-110.27976913 97.39639648 -110.28488007 96.59137695 -110.29014587 95.76196289 C-110.30408163 93.09253571 -110.30308211 90.42336556 -110.30078125 87.75390625 C-110.30466606 85.9030701 -110.30900028 84.05223485 -110.31376648 82.20140076 C-110.32123731 78.31840121 -110.32093123 74.43549257 -110.31567383 70.55249023 C-110.30987875 65.57096186 -110.32680689 60.58980524 -110.3500185 55.60833836 C-110.36473476 51.78482377 -110.36563041 47.96139914 -110.36250877 44.13786125 C-110.36302307 42.30100709 -110.36828108 40.46414804 -110.37832069 38.62732124 C-110.39062682 36.06062645 -110.38392876 33.49466121 -110.37231445 30.92797852 C-110.37995819 30.16579514 -110.38760193 29.40361176 -110.39547729 28.61833191 C-110.34394612 23.47860589 -110.34394612 23.47860589 -108.64024353 21.10787964 C-106.23511291 19.48336767 -103.78728395 18.00552088 -101.265625 16.56640625 C-100.13382813 15.91736328 -99.00203125 15.26832031 -97.8359375 14.59960938 C-96.6406886 13.92046098 -95.44537561 13.24142535 -94.25 12.5625 C-93.07006099 11.88780945 -91.89037093 11.21268335 -90.7109375 10.53710938 C-88.45975922 9.24944561 -86.20532535 7.9674524 -83.94726562 6.69189453 C-82.20840555 5.69369206 -80.48186498 4.67244995 -78.78710938 3.60107422 C-74.58387757 0.95185417 -74.58387757 0.95185417 -71.72021484 1.18798828 C-68.31921543 2.2032211 -65.5653711 3.74969211 -62.4921875 5.52734375 C-61.884888 5.87632217 -61.2775885 6.2253006 -60.65188599 6.58485413 C-58.72240215 7.69587482 -56.79877211 8.81662451 -54.875 9.9375 C-53.57457678 10.68747011 -52.27379885 11.43682552 -50.97265625 12.18554688 C-41.6763528 17.54909813 -41.6763528 17.54909813 -38 20 C-33.9018318 19.66888688 -30.86425681 18.02036299 -27.32421875 16.015625 C-26.24849609 15.40976563 -25.17277344 14.80390625 -24.06445312 14.1796875 C-22.39286133 13.22449219 -22.39286133 13.22449219 -20.6875 12.25 C-19.58470703 11.62867188 -18.48191406 11.00734375 -17.34570312 10.3671875 C-11.47359049 7.04374704 -5.68761811 3.63009974 0 0 Z " fill="#26397B" transform="translate(286,144)"/>
<path d="M0 0 C1.9075025 1.01018472 3.7984996 2.05189291 5.67578125 3.1171875 C6.75150391 3.72433594 7.82722656 4.33148438 8.93554688 4.95703125 C10.04994141 5.58996094 11.16433594 6.22289062 12.3125 6.875 C15.56935456 8.72137576 18.82763121 10.56286751 22.10327148 12.37573242 C23.8696398 13.36617898 25.61957347 14.38777568 27.33618164 15.4621582 C29.55210653 16.86166772 29.55210653 16.86166772 33 18 C35.88650432 16.9869001 37.42560401 16.1812806 39.8125 14.4375 C41.1066283 13.58244497 42.40228144 12.72969459 43.69921875 11.87890625 C44.72861572 11.1830542 44.72861572 11.1830542 45.77880859 10.47314453 C49.81000585 7.79956305 53.96251277 5.33707374 58.125 2.875 C59.33313354 2.12947876 59.33313354 2.12947876 60.56567383 1.36889648 C61.33032959 0.91458252 62.09498535 0.46026855 62.8828125 -0.0078125 C63.55715332 -0.41660645 64.23149414 -0.82540039 64.92626953 -1.24658203 C67.71722283 -2.26057801 69.17970434 -1.8843956 72 -1 C74.61206055 0.3034668 74.61206055 0.3034668 77.38671875 1.94921875 C78.40830078 2.55056641 79.42988281 3.15191406 80.48242188 3.77148438 C82.06893555 4.71991211 82.06893555 4.71991211 83.6875 5.6875 C84.72583984 6.30044922 85.76417969 6.91339844 86.83398438 7.54492188 C93.24081575 11.33278519 99.62209391 15.16367218 106 19 C103.52079295 21.77339447 100.79477299 23.40788797 97.56640625 25.23046875 C96.45604004 25.86082031 95.34567383 26.49117188 94.20166016 27.140625 C92.98863401 27.8229651 91.7755799 28.50525548 90.5625 29.1875 C89.31009307 29.89662164 88.0579816 30.60626532 86.80615234 31.31640625 C84.19335523 32.79807766 81.57928508 34.27746676 78.96435547 35.75537109 C73.26325734 38.98010225 67.57909491 42.23442292 61.89425659 45.48770142 C54.1663239 49.90931858 54.1663239 49.90931858 50.30566406 52.08984375 C47.9308114 53.46213675 45.60307717 54.86177879 43.28027344 56.31640625 C42.65829071 56.69631714 42.03630798 57.07622803 41.39547729 57.46765137 C39.65109985 58.53476998 37.91866277 59.62133578 36.18701172 60.70898438 C33 62 33 62 29.92529297 61.3972168 C27.08765332 60.04186613 24.35456608 58.63979424 21.640625 57.05078125 C20.62009033 56.4573291 19.59955566 55.86387695 18.5480957 55.25244141 C17.45972412 54.61226074 16.37135254 53.97208008 15.25 53.3125 C13.51173714 52.29920043 11.77346874 51.28591023 10.03486633 50.27319336 C8.22920444 49.22062351 6.42489048 48.16576778 4.62060547 47.11083984 C-0.02621093 44.39747864 -4.69280902 41.71890974 -9.35888672 39.03881836 C-13.63021007 36.58297974 -17.89396181 34.11419146 -22.15673828 31.64355469 C-24.75464876 30.14182591 -27.35903574 28.6520244 -29.96484375 27.1640625 C-31.35199871 26.36012719 -32.73875756 25.55550776 -34.125 24.75 C-34.74076904 24.40340332 -35.35653809 24.05680664 -35.9909668 23.69970703 C-37.6328125 22.734375 -37.6328125 22.734375 -40 21 C-40 20.01 -40 19.02 -40 18 C-39.06542969 17.47792969 -38.13085938 16.95585937 -37.16796875 16.41796875 C-36.54317627 16.06774658 -35.91838379 15.71752441 -35.2746582 15.35668945 C-33.86678484 14.56802346 -32.45773865 13.78144796 -31.04760742 12.99682617 C-26.94310822 10.70086216 -22.89228091 8.34140575 -18.8828125 5.8828125 C-18.03823486 5.37210205 -17.19365723 4.8613916 -16.32348633 4.33520508 C-14.66845397 3.33156513 -13.02211314 2.31342965 -11.38549805 1.2800293 C-10.625354 0.82281494 -9.86520996 0.36560059 -9.08203125 -0.10546875 C-8.41405518 -0.51949951 -7.7460791 -0.93353027 -7.05786133 -1.36010742 C-4.08373712 -2.28491221 -2.74231363 -1.38532166 0 0 Z " fill="#CB2056" transform="translate(218,231)"/>
<path d="M0 0 C0.12363784 5.76570815 0.21435706 11.53064422 0.2746582 17.29736328 C0.29979604 19.25876303 0.33391165 21.22006916 0.37719727 23.18115234 C0.43788208 26.00121144 0.46621641 28.82003194 0.48828125 31.640625 C0.51408768 32.51680481 0.5398941 33.39298462 0.56648254 34.29571533 C0.56928074 40.37547752 0.56928074 40.37547752 -2.15112305 43.35986328 C-3.09125244 43.9011084 -4.03138184 44.44235352 -5 45 C-5.95922363 45.59377441 -6.91844727 46.18754883 -7.90673828 46.79931641 C-9.47270752 47.69142822 -9.47270752 47.69142822 -11.0703125 48.6015625 C-12.21371094 49.25640625 -13.35710937 49.91125 -14.53515625 50.5859375 C-15.73165951 51.26582095 -16.92827525 51.94550649 -18.125 52.625 C-20.4827067 53.96972376 -22.8390246 55.31685156 -25.1953125 56.6640625 C-26.23703613 57.25654785 -27.27875977 57.8490332 -28.35205078 58.45947266 C-30.2726443 59.57683806 -32.1512028 60.76746853 -34 62 C-36.1875 61.625 -36.1875 61.625 -38 61 C-38.07410727 55.35834639 -38.12858167 49.71697553 -38.16479492 44.07495117 C-38.1798898 42.15530462 -38.20036773 40.2356926 -38.22631836 38.31616211 C-38.26267109 35.55834436 -38.27971912 32.8009822 -38.29296875 30.04296875 C-38.30845261 29.18350143 -38.32393646 28.32403412 -38.33988953 27.43852234 C-38.34011612 26.63791885 -38.34034271 25.83731537 -38.34057617 25.01245117 C-38.34723801 24.3085173 -38.35389984 23.60458344 -38.36076355 22.87931824 C-37.88668233 20.40969658 -36.91806609 19.5790425 -35 18 C-33.09342518 16.79762385 -31.15371568 15.64722174 -29.1953125 14.53125 C-28.05449219 13.87769531 -26.91367188 13.22414062 -25.73828125 12.55078125 C-24.53394523 11.86702708 -23.32951731 11.18343476 -22.125 10.5 C-20.92812682 9.81685912 -19.73150949 9.13326978 -18.53515625 8.44921875 C-16.32703773 7.1870811 -14.117693 5.92708458 -11.90673828 4.66992188 C-10.03095874 3.59228606 -8.18198219 2.46589589 -6.37060547 1.28320312 C-4 0 -4 0 0 0 Z " fill="#1EA0A0" transform="translate(214,146)"/>
<path d="M0 0 C1.91900498 1.01041487 3.82172443 2.05210895 5.7109375 3.1171875 C6.79117188 3.72433594 7.87140625 4.33148438 8.984375 4.95703125 C10.10328125 5.58996094 11.2221875 6.22289062 12.375 6.875 C13.48617187 7.50019531 14.59734375 8.12539062 15.7421875 8.76953125 C21.17241935 11.82726895 26.59395594 14.89970384 32 18 C32 18.66 32 19.32 32 20 C31.34443115 20.35481445 30.6888623 20.70962891 30.01342773 21.07519531 C21.95090186 25.45392573 13.96656947 29.96281748 5.99023438 34.49609375 C4.5274707 35.32560547 4.5274707 35.32560547 3.03515625 36.171875 C2.1625415 36.6678418 1.28992676 37.16380859 0.39086914 37.67480469 C-0.39811768 38.11211914 -1.18710449 38.54943359 -2 39 C-2.98214478 39.66467285 -2.98214478 39.66467285 -3.98413086 40.34277344 C-6 41 -6 41 -8.49853516 40.03710938 C-9.41940918 39.47830078 -10.3402832 38.91949219 -11.2890625 38.34375 C-12.31386719 37.73273438 -13.33867187 37.12171875 -14.39453125 36.4921875 C-15.46058594 35.83476562 -16.52664062 35.17734375 -17.625 34.5 C-18.66785156 33.87351562 -19.71070313 33.24703125 -20.78515625 32.6015625 C-22.85912333 31.35355734 -24.92727312 30.09582979 -26.98925781 28.828125 C-28.97624764 27.62162323 -30.98089747 26.44367961 -33.00292969 25.296875 C-33.91719727 24.77609375 -34.83146484 24.2553125 -35.7734375 23.71875 C-36.58989746 23.26435547 -37.40635742 22.80996094 -38.24755859 22.34179688 C-38.82586426 21.89900391 -39.40416992 21.45621094 -40 21 C-40 20.01 -40 19.02 -40 18 C-39.06542969 17.47792969 -38.13085938 16.95585937 -37.16796875 16.41796875 C-36.54317627 16.06774658 -35.91838379 15.71752441 -35.2746582 15.35668945 C-33.86678484 14.56802346 -32.45773865 13.78144796 -31.04760742 12.99682617 C-26.94310822 10.70086216 -22.89228091 8.34140575 -18.8828125 5.8828125 C-18.03823486 5.37210205 -17.19365723 4.8613916 -16.32348633 4.33520508 C-14.66845397 3.33156513 -13.02211314 2.31342965 -11.38549805 1.2800293 C-10.625354 0.82281494 -9.86520996 0.36560059 -9.08203125 -0.10546875 C-8.41405518 -0.51949951 -7.7460791 -0.93353027 -7.05786133 -1.36010742 C-4.08366952 -2.28493323 -2.74308995 -1.38454357 0 0 Z " fill="#8E287F" transform="translate(218,231)"/>
<path d="M0 0 C3.1058481 3.1058481 2.41998807 6.9138449 2.51953125 11.09375 C2.54601242 11.9962146 2.57249359 12.8986792 2.59977722 13.82849121 C2.65249877 15.73823096 2.7000728 17.64811866 2.74291992 19.55810547 C2.81223474 22.48878463 2.90813198 25.41780374 3.00585938 28.34765625 C3.05370576 30.20047965 3.09998269 32.05334438 3.14453125 33.90625 C3.17561478 34.78647827 3.2066983 35.66670654 3.23872375 36.5736084 C3.28051758 39.04101562 3.28051758 39.04101562 3 43 C2.01 43.66 1.02 44.32 0 45 C-0.86238281 44.47792969 -1.72476563 43.95585937 -2.61328125 43.41796875 C-10.93550239 38.3952608 -19.31191011 33.47557687 -27.73950195 28.6315918 C-28.51124756 28.18726807 -29.28299316 27.74294434 -30.078125 27.28515625 C-30.76293945 26.89207275 -31.44775391 26.49898926 -32.15332031 26.09399414 C-33.80235849 25.11708509 -35.40522238 24.06318508 -37 23 C-37 22.34 -37 21.68 -37 21 C-36.17242187 20.57332031 -35.34484375 20.14664063 -34.4921875 19.70703125 C-22.73821092 13.57423 -11.37276734 6.80776316 0 0 Z " fill="#90C540" transform="translate(286,144)"/>
<path d="M0 0 C0.66 0.33 1.32 0.66 2 1 C2 14.86 2 28.72 2 43 C-2.20775378 41.94806155 -5.47394135 40.20123888 -9.1875 38.0625 C-9.87787354 37.66861084 -10.56824707 37.27472168 -11.27954102 36.86889648 C-13.52303441 35.58499231 -15.76154081 34.29265806 -18 33 C-18.78955078 32.54753906 -19.57910156 32.09507812 -20.39257812 31.62890625 C-22.74469995 30.2799233 -25.09188132 28.92275376 -27.4375 27.5625 C-28.17701904 27.13783447 -28.91653809 26.71316895 -29.6784668 26.27563477 C-34.88453927 23.23092146 -34.88453927 23.23092146 -36 21 C-35.26475098 20.57702637 -34.52950195 20.15405273 -33.77197266 19.71826172 C-30.99453344 18.11987054 -28.21757435 16.52064907 -25.44091797 14.92089844 C-24.24839573 14.2340518 -23.05569303 13.54751835 -21.86279297 12.86132812 C-20.12938559 11.86414507 -18.39672209 10.8656693 -16.6640625 9.8671875 C-15.5390332 9.21975586 -14.41400391 8.57232422 -13.25488281 7.90527344 C-9.42114854 5.66116435 -5.65187681 3.32213965 -1.90380859 0.93798828 C-1.27555176 0.62845215 -0.64729492 0.31891602 0 0 Z " fill="#158D46" transform="translate(236,103)"/>
<path d="M0 0 C0.87164795 0.50192871 1.7432959 1.00385742 2.64135742 1.52099609 C3.61927246 2.07819336 4.5971875 2.63539063 5.60473633 3.20947266 C6.64162598 3.81500977 7.67851562 4.42054688 8.74682617 5.04443359 C9.78500488 5.64223633 10.82318359 6.24003906 11.89282227 6.85595703 C15.0805431 8.69836075 18.25862105 10.55640511 21.43432617 12.41943359 C22.52938477 13.06009766 23.62444336 13.70076172 24.75268555 14.36083984 C27.41824562 15.92059989 30.08294002 17.48181702 32.74682617 19.04443359 C28.78681834 23.54846528 23.09190714 26.06424674 17.94213867 28.99682617 C16.01232224 30.09809064 14.09041303 31.21230472 12.16870117 32.32763672 C10.92957851 33.03742592 9.69000889 33.74643553 8.44995117 34.45458984 C7.33265625 35.09533447 6.21536133 35.7360791 5.06420898 36.39624023 C1.74682617 38.04443359 1.74682617 38.04443359 -5.25317383 40.04443359 C-5.25317383 26.84443359 -5.25317383 13.64443359 -5.25317383 0.04443359 C-2.25317383 -0.95556641 -2.25317383 -0.95556641 0 0 Z " fill="#E44331" transform="translate(291.253173828125,230.95556640625)"/>
<path d="M0 0 C4.43324051 0.59605727 7.61484039 2.26990375 11.47265625 4.4921875 C12.07758408 4.83879425 12.6825119 5.185401 13.30577087 5.54251099 C14.57919553 6.27391271 15.8506973 7.00867141 17.12036133 7.74658203 C19.05582862 8.87112381 20.99700353 9.98522719 22.93945312 11.09765625 C34.55401566 17.78450193 34.55401566 17.78450193 37 20 C37 20.99 37 21.98 37 23 C34.97143555 24.53051758 34.97143555 24.53051758 32.13671875 26.14453125 C31.10353516 26.73943359 30.07035156 27.33433594 29.00585938 27.94726562 C27.36327148 28.87055664 27.36327148 28.87055664 25.6875 29.8125 C24.63498047 30.41642578 23.58246094 31.02035156 22.49804688 31.64257812 C15.71289259 35.52159864 8.86353834 39.25625181 2 43 C2 29.14 2 15.28 2 1 C1.34 0.67 0.68 0.34 0 0 Z " fill="#056535" transform="translate(212,145)"/>
<path d="M0 0 C0.495 0.268125 0.99 0.53625 1.5 0.8125 C4.16821445 2.12681971 4.16821445 2.12681971 7.75 3.375 C10.70444724 4.47252449 13.58496543 5.65823329 16.4375 7 C17.09621094 7.309375 17.75492188 7.61875 18.43359375 7.9375 C20 9 20 9 21 12 C21.66 12 22.32 12 23 12 C23 12.66 23 13.32 23 14 C26.63 14.66 30.26 15.32 34 16 C34.495 17.98 34.495 17.98 35 20 C28.05490228 24.75260622 20.929272 29.1528219 13.6875 33.4375 C12.61693359 34.08654297 11.54636719 34.73558594 10.44335938 35.40429688 C9.41404297 36.01208984 8.38472656 36.61988281 7.32421875 37.24609375 C5.9333606 38.07645142 5.9333606 38.07645142 4.5144043 38.92358398 C2 40 2 40 -0.33276367 39.67211914 C-0.88295166 39.45031982 -1.43313965 39.22852051 -2 39 C-2.04942365 33.927993 -2.08573068 28.85612606 -2.10986328 23.78393555 C-2.11992326 22.05832477 -2.13357276 20.33273105 -2.15087891 18.60717773 C-2.17512754 16.1273986 -2.18648301 13.64784477 -2.1953125 11.16796875 C-2.20563507 10.39599655 -2.21595764 9.62402435 -2.22659302 8.82865906 C-2.22739422 5.00718524 -2.17242595 3.25863893 0 0 Z " fill="#357CB9" transform="translate(178,168)"/>
<path d="M0 0 C0.99 0.33 1.98 0.66 3 1 C3.0246501 6.10863896 3.04283607 11.21724359 3.05493164 16.32592773 C3.05997204 18.06519168 3.0668043 19.80445136 3.07543945 21.54370117 C3.08751792 24.03825937 3.09323108 26.53276173 3.09765625 29.02734375 C3.10281754 29.80963852 3.10797882 30.59193329 3.11329651 31.39793396 C3.11349226 33.26567114 3.06199694 35.13329204 3 37 C2 38 2 38 -1.71484375 38.03515625 C-8.79614294 37.16104304 -14.58627574 33.06794733 -20.5625 29.4375 C-21.77322148 28.71794013 -22.98480471 27.99982816 -24.19726562 27.28320312 C-27.14028072 25.53615432 -30.07376916 23.77496866 -33 22 C-31.49005073 17.65158721 -28.69400584 16.35595252 -24.78515625 14.1796875 C-24.17361191 13.83495392 -23.56206757 13.49022034 -22.93199158 13.13504028 C-20.98105691 12.03805841 -19.02218626 10.95625599 -17.0625 9.875 C-15.10837368 8.78330663 -13.15595002 7.68861654 -11.20372009 6.59353638 C-9.43155307 5.601645 -7.65544414 4.6168063 -5.87915039 3.63232422 C-2.93621469 2.00960573 -2.93621469 2.00960573 0 0 Z " fill="#D91F79" transform="translate(247,251)"/>
<path d="M0 0 C0 13.86 0 27.72 0 42 C-18.00965665 32.39484979 -18.00965665 32.39484979 -25.9375 27.6875 C-26.82373047 27.17638672 -27.70996094 26.66527344 -28.62304688 26.13867188 C-29.87504883 25.39520508 -29.87504883 25.39520508 -31.15234375 24.63671875 C-31.89476318 24.20061279 -32.63718262 23.76450684 -33.40209961 23.31518555 C-33.92940674 22.88117432 -34.45671387 22.44716309 -35 22 C-35 21.01 -35 20.02 -35 19 C-34.04222656 18.46632812 -33.08445313 17.93265625 -32.09765625 17.3828125 C-30.75235013 16.63066253 -29.40732022 15.8780184 -28.0625 15.125 C-27.35335449 14.72804932 -26.64420898 14.33109863 -25.91357422 13.92211914 C-19.68375298 10.41844149 -13.52869675 6.79495241 -7.41040039 3.10009766 C-2.21709019 0 -2.21709019 0 0 0 Z " fill="#632B7C" transform="translate(213,230)"/>
<path d="M0 0 C9.33519166 4.42477292 18.16134877 9.5356296 27.02197266 14.82910156 C29.99450489 16.58869976 32.99556902 18.29552543 36 20 C31.37773641 23.59517004 26.35851139 26.51131344 21.34667969 29.52514648 C19.63384943 30.55716801 17.92627855 31.59790189 16.21875 32.63867188 C15.12820312 33.29544922 14.03765625 33.95222656 12.9140625 34.62890625 C11.9235791 35.22775635 10.9330957 35.82660645 9.91259766 36.44360352 C7 38 7 38 3.69287109 39.08569336 C0.8590764 39.69588005 0.8590764 39.69588005 0 42 C-1.83360654 40.16639346 -1.12870678 37.60966264 -1.13894653 35.16995239 C-1.1369223 34.35332123 -1.13489807 33.53669006 -1.1328125 32.6953125 C-1.13376923 31.86039276 -1.13472595 31.02547302 -1.13571167 30.16525269 C-1.13639362 28.39483566 -1.13453828 26.62441616 -1.13037109 24.85400391 C-1.12503641 22.14349735 -1.13030861 19.43315752 -1.13671875 16.72265625 C-1.13605771 15.00520797 -1.13477601 13.28775979 -1.1328125 11.5703125 C-1.13483673 10.7577298 -1.13686096 9.94514709 -1.13894653 9.10794067 C-1.12524789 5.81672069 -1.04808869 3.14426606 0 0 Z " fill="#212153" transform="translate(177,209)"/>
<path d="M0 0 C0.556875 0.226875 1.11375 0.45375 1.6875 0.6875 C0.6975 1.0175 -0.2925 1.3475 -1.3125 1.6875 C-1.3125 14.5575 -1.3125 27.4275 -1.3125 40.6875 C-8.05613577 38.43962141 -8.05613577 38.43962141 -11.16015625 36.55078125 C-11.84215088 36.14134277 -12.52414551 35.7319043 -13.22680664 35.31005859 C-13.93571045 34.87773926 -14.64461426 34.44541992 -15.375 34 C-22.58232284 29.67670797 -29.87185608 25.59545559 -37.3125 21.6875 C-34.3135769 18.42015061 -31.25977807 16.30638626 -27.41015625 14.12109375 C-26.27255859 13.47076172 -25.13496094 12.82042969 -23.96289062 12.15039062 C-22.76704109 11.47505851 -21.57107651 10.79993005 -20.375 10.125 C-19.1825988 9.44656763 -17.9905381 8.76753644 -16.79882812 8.08789062 C-14.60211259 6.83599897 -12.40379728 5.58690724 -10.20336914 4.34155273 C-8.30386238 3.25472237 -6.42762784 2.12596628 -4.57983398 0.95336914 C-2.3125 -0.3125 -2.3125 -0.3125 0 0 Z " fill="#BC2329" transform="translate(287.3125,229.3125)"/>
<path d="M0 0 C3.33303003 -0.1174875 6.66551837 -0.18767324 10 -0.25 C10.93457031 -0.28351563 11.86914062 -0.31703125 12.83203125 -0.3515625 C19.09227402 -0.43911834 23.80389626 0.35741958 29 4 C33.92349371 9.302224 34.35826982 12.86571974 34.2734375 19.94921875 C33.86730315 24.48051768 32.87983145 26.45559207 30 30 C23.57614852 34.96250138 17.00480675 35.16423174 9.25 35.125 C8.47011719 35.12886719 7.69023437 35.13273437 6.88671875 35.13671875 C1.12670133 35.12670133 1.12670133 35.12670133 0 34 C-0.08847743 31.47905924 -0.11527301 28.98569107 -0.09765625 26.46484375 C-0.0962413 25.71159317 -0.09482635 24.95834259 -0.09336853 24.18226624 C-0.08775376 21.7673044 -0.07519883 19.35243399 -0.0625 16.9375 C-0.0574869 15.30403779 -0.05292366 13.67057414 -0.04882812 12.03710938 C-0.03777954 8.02470415 -0.02050506 4.01236759 0 0 Z M9 6 C7.77215191 7.00559794 7.77215191 7.00559794 7.88647461 9.04125977 C7.89171143 9.91580811 7.89694824 10.79035645 7.90234375 11.69140625 C7.90556641 12.63564453 7.90878906 13.57988281 7.91210938 14.55273438 C7.92048828 15.54595703 7.92886719 16.53917969 7.9375 17.5625 C7.94201172 18.55958984 7.94652344 19.55667969 7.95117188 20.58398438 C7.96299993 23.05604849 7.97948151 25.52799518 8 28 C16.58668563 28.67820225 16.58668563 28.67820225 24 25 C26.61429492 22.47585319 26.97469861 21.23192942 27.375 17.5625 C26.9782558 13.79343007 26.29408672 11.97381612 24 9 C20.62364705 6.74909804 18.86259337 6.60556409 14.875 6.3125 C13.79992187 6.22613281 12.72484375 6.13976562 11.6171875 6.05078125 C10.32167969 6.02564453 10.32167969 6.02564453 9 6 Z " fill="#22222A" transform="translate(146,309)"/>
<path d="M0 0 C5.71142578 -0.23388672 5.71142578 -0.23388672 8.30859375 1.87109375 C9.01113281 2.71800781 9.71367187 3.56492187 10.4375 4.4375 C11.19804687 5.34113281 11.95859375 6.24476563 12.7421875 7.17578125 C15.86933961 11.08742654 18.99188527 14.99562862 22 19 C22.06058594 17.71222656 22.12117188 16.42445313 22.18359375 15.09765625 C22.26798247 13.41925841 22.3526313 11.74087364 22.4375 10.0625 C22.47681641 9.21236328 22.51613281 8.36222656 22.55664062 7.48632812 C22.59853516 6.67744141 22.64042969 5.86855469 22.68359375 5.03515625 C22.72025146 4.2862915 22.75690918 3.53742676 22.79467773 2.76586914 C23 1 23 1 24 0 C26.33297433 -0.04092937 28.66705225 -0.04241723 31 0 C31.0246519 4.82380802 31.04283693 9.64757967 31.05493164 14.47143555 C31.05997174 16.11369464 31.06680378 17.75594923 31.07543945 19.39819336 C31.08751926 21.75375479 31.09323139 24.10925709 31.09765625 26.46484375 C31.10281754 27.20339096 31.10797882 27.94193817 31.11329651 28.7028656 C31.1134925 30.46898088 31.06194719 32.23497146 31 34 C30 35 30 35 27.70703125 35.3359375 C24.00179886 34.87612511 23.06570717 33.45102315 20.6875 30.625 C19.91921875 29.72265625 19.1509375 28.8203125 18.359375 27.890625 C14.87229238 23.61837146 11.4072755 19.33653245 8 15 C7.67 21.6 7.34 28.2 7 35 C5.02 35 3.04 35 1 35 C0 34 0 34 -0.11352539 30.76538086 C-0.11336631 29.33185874 -0.10767407 27.89833088 -0.09765625 26.46484375 C-0.0962413 25.71159317 -0.09482635 24.95834259 -0.09336853 24.18226624 C-0.08775376 21.7673044 -0.07519883 19.35243399 -0.0625 16.9375 C-0.0574869 15.30403779 -0.05292366 13.67057414 -0.04882812 12.03710938 C-0.03777954 8.02470415 -0.02050506 4.01236759 0 0 Z " fill="#222329" transform="translate(206,309)"/>
<path d="M0 0 C3.04221065 -0.08132642 6.0822238 -0.14065374 9.125 -0.1875 C9.9809375 -0.21263672 10.836875 -0.23777344 11.71875 -0.26367188 C17.78544143 -0.33367216 21.99507643 0.5131667 26.8125 4.5 C29.5698648 7.98298712 29.29206134 11.76511051 29 16 C27.43884478 19.27099189 25.56861533 21.49613968 23 24 C23.433125 24.54269531 23.86625 25.08539063 24.3125 25.64453125 C24.869375 26.35996094 25.42625 27.07539063 26 27.8125 C26.556875 28.52019531 27.11375 29.22789062 27.6875 29.95703125 C29 32 29 32 29 35 C25.875 35.5 25.875 35.5 22 35 C19.5118883 32.63602403 17.64782223 30.00591748 16 27 C16 26.34 16 25.68 16 25 C13.03 25 10.06 25 7 25 C7 28.3 7 31.6 7 35 C5.00045254 35.04254356 2.99958364 35.04080783 1 35 C0 34 0 34 -0.11352539 30.76538086 C-0.11336631 29.33185874 -0.10767407 27.89833088 -0.09765625 26.46484375 C-0.0962413 25.71159317 -0.09482635 24.95834259 -0.09336853 24.18226624 C-0.08775376 21.7673044 -0.07519883 19.35243399 -0.0625 16.9375 C-0.0574869 15.30403779 -0.05292366 13.67057414 -0.04882812 12.03710938 C-0.03777954 8.02470415 -0.02050506 4.01236759 0 0 Z M7 7 C7 10.63 7 14.26 7 18 C8.93627769 18.10807131 10.87427756 18.1856225 12.8125 18.25 C13.89144531 18.29640625 14.97039062 18.3428125 16.08203125 18.390625 C19.08680534 18.28394622 19.08680534 18.28394622 20.8984375 16.1484375 C22.22878791 14.01107206 22.22878791 14.01107206 21.8125 11.375 C21.14323449 8.84979635 21.14323449 8.84979635 19 7 C16.10116917 6.75660449 16.10116917 6.75660449 12.875 6.875 C11.23144531 6.90207031 11.23144531 6.90207031 9.5546875 6.9296875 C8.71164062 6.95289063 7.86859375 6.97609375 7 7 Z " fill="#222329" transform="translate(339,309)"/>
<path d="M0 0 C4.29497724 3.49360832 6.42557752 6.74512348 7.13671875 12.3515625 C7.2283307 18.74607692 6.76174085 22.59557183 2.80078125 27.703125 C-3.35855432 32.47975259 -8.57559654 33.51631137 -16.19921875 32.703125 C-21.4956029 31.04292963 -25.24333637 28.47801192 -28.19921875 23.703125 C-30.64361501 18.58153283 -30.481462 14.11494576 -29.19921875 8.703125 C-27.70208825 4.55346982 -25.54697493 1.62896699 -21.76171875 -0.671875 C-14.57988962 -3.94779706 -6.98392602 -4.11840753 0 0 Z M-20.19921875 7.703125 C-22.87827605 11.72171095 -22.89532569 14.97954221 -22.19921875 19.703125 C-20.40528207 22.57342369 -19.21658599 24.19444138 -16.19921875 25.703125 C-12.40506356 26.23430673 -8.73590697 26.55401848 -5.30859375 24.65625 C-1.79932941 21.76025515 -0.32057372 19.96521667 0.11328125 15.453125 C-0.25784855 10.99956735 -1.30236149 9.0697429 -4.19921875 5.703125 C-10.52297356 2.1358787 -14.64098182 3.38005183 -20.19921875 7.703125 Z " fill="#23232A" transform="translate(131.19921875,311.296875)"/>
<path d="M0 0 C0.804375 0.721875 1.60875 1.44375 2.4375 2.1875 C2.4375 3.5075 2.4375 4.8275 2.4375 6.1875 C0.875 7.375 0.875 7.375 -1.5625 8.1875 C-3.28395631 7.44045292 -5.00400045 6.6879912 -6.6953125 5.875 C-9.90567424 4.69294212 -12.34553813 5.27703909 -15.5625 6.1875 C-17.8806362 8.07861111 -19.23164015 9.52578031 -20.5625 12.1875 C-20.95697548 16.36894011 -21.01285186 18.49696048 -18.6875 22.0625 C-16.23205218 24.51794782 -15.41458505 25.15551483 -11.9609375 25.28515625 C-9.16145833 25.25260417 -6.36197917 25.22005208 -3.5625 25.1875 C-3.5625 21.5575 -3.5625 17.9275 -3.5625 14.1875 C-1.2525 14.1875 1.0575 14.1875 3.4375 14.1875 C3.4375 19.1375 3.4375 24.0875 3.4375 29.1875 C-2.95607778 33.04777337 -8.10565536 34.26206713 -15.5625 33.1875 C-20.91552842 31.51635423 -24.49998958 28.96501626 -27.5625 24.1875 C-29.57388947 18.1533316 -29.64006502 11.42244967 -26.875 5.6875 C-19.23153743 -2.57570278 -10.24942047 -5.21461743 0 0 Z " fill="#232329" transform="translate(273.5625,310.8125)"/>
<path d="M0 0 C2.64 0 5.28 0 8 0 C10.16458613 4.65850805 12.3188725 9.32158425 14.46362305 13.98925781 C15.19516158 15.57748143 15.92953082 17.16440433 16.66674805 18.75 C17.72405515 21.02530781 18.77119601 23.30505236 19.81640625 25.5859375 C20.14967422 26.29744965 20.4829422 27.00896179 20.8263092 27.74203491 C21.61140752 29.46842209 22.31399501 31.23189672 23 33 C22.505 33.99 22.505 33.99 22 35 C19.1875 35.3125 19.1875 35.3125 16 35 C14.1875 32.625 14.1875 32.625 13 30 C12.67 29.34 12.34 28.68 12 28 C6.72 28 1.44 28 -4 28 C-4.33 29.65 -4.66 31.3 -5 33 C-8.4352048 35.29013653 -9.985331 35.17842973 -14 35 C-14.33 34.34 -14.66 33.68 -15 33 C-14.67 32.34 -14.34 31.68 -14 31 C-14.66 30.67 -15.32 30.34 -16 30 C-15.01 29.67 -14.02 29.34 -13 29 C-11.81574973 26.85711582 -10.82133764 24.80048196 -9.86328125 22.55859375 C-9.57897751 21.91632339 -9.29467377 21.27405304 -9.00175476 20.61231995 C-8.09527926 18.55829847 -7.20379239 16.49814882 -6.3125 14.4375 C-5.70084527 13.04449315 -5.08822676 11.65190905 -4.47460938 10.25976562 C-2.97185542 6.84467999 -1.48247726 3.4239444 0 0 Z M2 12 C1.01 14.97 0.02 17.94 -1 21 C2.3 21 5.6 21 9 21 C8.01 18.03 7.02 15.06 6 12 C5.01 12 4.02 12 3 12 C2.67 12 2.34 12 2 12 Z " fill="#23232A" transform="translate(386,309)"/>
<path d="M0 0 C0.82564453 0.70189453 0.82564453 0.70189453 1.66796875 1.41796875 C1.32177836 4.01439671 1.00451163 5.13128407 -1.01953125 6.85546875 C-3.33203125 7.41796875 -3.33203125 7.41796875 -6.14453125 5.98046875 C-10.16870288 4.0078356 -12.05965771 4.17509645 -16.33203125 5.41796875 C-19.18880902 7.42379144 -20.9971834 8.8394003 -21.7421875 12.3515625 C-21.93593853 16.80783629 -21.151624 19.83925487 -18.33203125 23.41796875 C-15.99236435 24.5878022 -14.49811598 24.58409285 -11.89453125 24.60546875 C-10.72083984 24.62673828 -10.72083984 24.62673828 -9.5234375 24.6484375 C-7.03997138 24.55882939 -7.03997138 24.55882939 -4.33203125 22.41796875 C-1.64453125 22.79296875 -1.64453125 22.79296875 0.66796875 23.41796875 C0.99796875 24.73796875 1.32796875 26.05796875 1.66796875 27.41796875 C-3.52362748 31.76768451 -7.04011179 32.77694372 -13.6953125 32.69921875 C-19.08727408 32.12407618 -22.92064978 29.82935022 -26.70703125 26.04296875 C-30.41497877 20.05320737 -30.83782808 15.18150617 -29.33203125 8.41796875 C-26.92466263 2.84300983 -22.61530341 -0.55232028 -17.14453125 -3.01953125 C-11.28518101 -3.88402555 -5.00354628 -3.39436557 0 0 Z " fill="#222328" transform="translate(94.33203125,311.58203125)"/>
<path d="M0 0 C-0.34619039 2.59642796 -0.66345712 3.71331532 -2.6875 5.4375 C-5 6 -5 6 -7.8125 4.5625 C-11.83667163 2.58986685 -13.72762646 2.7571277 -18 4 C-21.02519989 6.05971056 -22.66926776 7.51573824 -23.48046875 11.15625 C-23.73681175 15.31316358 -23.31925337 17.49537371 -21.0625 21.0625 C-16.91360705 23.68730983 -13.7820258 23.662772 -9 23 C-5.58528076 22.11539972 -5.58528076 22.11539972 -3 21 C-2.01 21.99 -1.02 22.98 0 24 C-0.98473352 26.85572721 -1.9583843 27.97012206 -4.4375 29.75 C-10.03653047 31.71457209 -15.71501715 32.27901163 -21.34765625 30.0859375 C-26.36543782 27.1784379 -30.01814453 23.66832113 -31.5625 17.8984375 C-32.4823011 12.32214334 -31.76359967 7.93345723 -29 3 C-21.2984116 -7.19327877 -9.82170019 -6.34318138 0 0 Z " fill="#222328" transform="translate(331,313)"/>
<path d="M0 0 C0.125 2.375 0.125 2.375 0 5 C-2 7 -2 7 -3.87939453 7.22705078 C-4.62302246 7.21657715 -5.36665039 7.20610352 -6.1328125 7.1953125 C-7.34130859 7.18564453 -7.34130859 7.18564453 -8.57421875 7.17578125 C-9.41597656 7.15902344 -10.25773437 7.14226562 -11.125 7.125 C-12.39923828 7.11146484 -12.39923828 7.11146484 -13.69921875 7.09765625 C-15.79959884 7.07405647 -17.89983444 7.03818483 -20 7 C-20.33 9.64 -20.66 12.28 -21 15 C-19.85660156 14.98839844 -18.71320313 14.97679687 -17.53515625 14.96484375 C-16.04427246 14.95546712 -14.55338691 14.94636679 -13.0625 14.9375 C-11.93038086 14.92493164 -11.93038086 14.92493164 -10.77539062 14.91210938 C-8.85005687 14.90347559 -6.92464419 14.94775667 -5 15 C-4 16 -4 16 -4 22 C-9.61 22 -15.22 22 -21 22 C-20.814375 23.77375 -20.62875 25.5475 -20.4375 27.375 C-19.875 32.75 -19.875 32.75 -21 35 C-22.99954746 35.04254356 -25.00041636 35.04080783 -27 35 C-28 34 -28 34 -28.11352539 30.76538086 C-28.11336631 29.33185874 -28.10767407 27.89833088 -28.09765625 26.46484375 C-28.0962413 25.71159317 -28.09482635 24.95834259 -28.09336853 24.18226624 C-28.08775376 21.7673044 -28.07519883 19.35243399 -28.0625 16.9375 C-28.0574869 15.30403779 -28.05292366 13.67057414 -28.04882812 12.03710938 C-28.03777954 8.02470415 -28.02050506 4.01236759 -28 0 C-23.89621612 -0.19660714 -19.79196562 -0.3807276 -15.6875 -0.5625 C-14.52025391 -0.61857422 -13.35300781 -0.67464844 -12.15039062 -0.73242188 C-11.03212891 -0.78076172 -9.91386719 -0.82910156 -8.76171875 -0.87890625 C-7.2142395 -0.94960327 -7.2142395 -0.94960327 -5.63549805 -1.02172852 C-3 -1 -3 -1 0 0 Z " fill="#222229" transform="translate(442,309)"/>
<path d="M0 0 C0 10.23 0 20.46 0 31 C-6.32495694 29.73500861 -10.81446966 26.88934559 -16.3125 23.625 C-17.85260742 22.73941406 -17.85260742 22.73941406 -19.42382812 21.8359375 C-20.39384766 21.26359375 -21.36386719 20.69125 -22.36328125 20.1015625 C-23.25313721 19.57900879 -24.14299316 19.05645508 -25.05981445 18.51806641 C-26.0202063 17.76662354 -26.0202063 17.76662354 -27 17 C-27 16.01 -27 15.02 -27 14 C-24.84448242 12.37426758 -24.84448242 12.37426758 -21.85546875 10.64453125 C-20.25155273 9.71157227 -20.25155273 9.71157227 -18.61523438 8.75976562 C-17.48408203 8.11716797 -16.35292969 7.47457031 -15.1875 6.8125 C-13.50817383 5.83120117 -13.50817383 5.83120117 -11.79492188 4.83007812 C-3.40901981 0 -3.40901981 0 0 0 Z " fill="#DCDB24" transform="translate(278,108)"/>
<path d="M0 0 C5.14417004 1.4893137 9.45988084 3.77734943 14.0625 6.4375 C14.75666016 6.83259766 15.45082031 7.22769531 16.16601562 7.63476562 C19.80486165 9.71163786 23.41698885 11.82784314 27 14 C22.62983683 18.70882222 17.47613079 21.28961059 11.875 24.3125 C10.35326172 25.15651367 10.35326172 25.15651367 8.80078125 26.01757812 C7.83269531 26.54416016 6.86460937 27.07074219 5.8671875 27.61328125 C4.98144043 28.09579346 4.09569336 28.57830566 3.18310547 29.07543945 C2.46268066 29.38054443 1.74225586 29.68564941 1 30 C0.34 29.67 -0.32 29.34 -1 29 C-1.02465881 25.03069011 -1.04284023 21.06140966 -1.05493164 17.09204102 C-1.05997057 15.74079614 -1.06680177 14.38955674 -1.07543945 13.03833008 C-1.08752419 11.09979566 -1.09269828 9.161222 -1.09765625 7.22265625 C-1.10289307 6.05484619 -1.10812988 4.88703613 -1.11352539 3.68383789 C-1 1 -1 1 0 0 Z " fill="#FBED26" transform="translate(293,91)"/>
<path d="M0 0 C9.57 0 19.14 0 29 0 C29 2.31 29 4.62 29 7 C25.37 7 21.74 7 18 7 C18 16.24 18 25.48 18 35 C16.02 35 14.04 35 12 35 C11 34 11 34 10.88647461 31.40795898 C10.89171143 30.28204346 10.89694824 29.15612793 10.90234375 27.99609375 C10.90556641 26.78115234 10.90878906 25.56621094 10.91210938 24.31445312 C10.92048828 23.03505859 10.92886719 21.75566406 10.9375 20.4375 C10.94201172 19.15423828 10.94652344 17.87097656 10.95117188 16.54882812 C10.96300455 13.36583978 10.97948932 10.18294238 11 7 C10.28972656 7.01160156 9.57945312 7.02320313 8.84765625 7.03515625 C7.92855469 7.04417969 7.00945312 7.05320312 6.0625 7.0625 C5.14597656 7.07410156 4.22945313 7.08570313 3.28515625 7.09765625 C1 7 1 7 0 6 C0 4.02 0 2.04 0 0 Z " fill="#23232A" transform="translate(443,309)"/>
<path d="M0 0 C2.31 0 4.62 0 7 0 C8.11205912 3.58133836 8.12924529 6.9281706 8.1328125 10.6640625 C8.13474609 12.59378906 8.13474609 12.59378906 8.13671875 14.5625 C8.13357666 15.56216797 8.13357666 15.56216797 8.13037109 16.58203125 C8.1249998 18.6250749 8.13033733 20.66790049 8.13671875 22.7109375 C8.13542969 23.99484375 8.13414062 25.27875 8.1328125 26.6015625 C8.13168457 27.78057129 8.13055664 28.95958008 8.12939453 30.17431641 C8 33 8 33 7 35 C5.00045254 35.04254356 2.99958364 35.04080783 1 35 C0 34 0 34 -0.11352539 30.76538086 C-0.11336631 29.33185874 -0.10767407 27.89833088 -0.09765625 26.46484375 C-0.0962413 25.71159317 -0.09482635 24.95834259 -0.09336853 24.18226624 C-0.08775376 21.7673044 -0.07519883 19.35243399 -0.0625 16.9375 C-0.0574869 15.30403779 -0.05292366 13.67057414 -0.04882812 12.03710938 C-0.03777954 8.02470415 -0.02050506 4.01236759 0 0 Z " fill="#23222A" transform="translate(188,309)"/>
<path d="M0 0 C12.84987058 6.85936152 12.84987058 6.85936152 17 10 C17 10.66 17 11.32 17 12 C14.38029207 13.53064939 11.75498357 15.04969748 9.125 16.5625 C8.00544922 17.21895508 8.00544922 17.21895508 6.86328125 17.88867188 C6.14785156 18.29794922 5.43242187 18.70722656 4.6953125 19.12890625 C4.03547363 19.51119385 3.37563477 19.89348145 2.69580078 20.28735352 C2.13618652 20.52252686 1.57657227 20.7577002 1 21 C0.34 20.67 -0.32 20.34 -1 20 C-1.02888514 16.85418577 -1.04675923 13.70840531 -1.0625 10.5625 C-1.07087891 9.66466797 -1.07925781 8.76683594 -1.08789062 7.84179688 C-1.09111328 6.98779297 -1.09433594 6.13378906 -1.09765625 5.25390625 C-1.10551147 4.06776733 -1.10551147 4.06776733 -1.11352539 2.85766602 C-1 1 -1 1 0 0 Z " fill="#F8CE1F" transform="translate(306,144)"/>
<path d="M0 0 C0.66 0.33 1.32 0.66 2 1 C1.484375 1.495 0.96875 1.99 0.4375 2.5 C-1.71096894 6.23646773 -0.66937905 8.78291198 0 13 C-0.33 13.99 -0.66 14.98 -1 16 C-0.61067144 18.14255793 -0.61067144 18.14255793 0 20 C-5.96652354 18.42986223 -10.82909025 15.24970218 -16 12 C-14.52633456 7.46643202 -10.93904769 5.85081234 -7 3.6875 C-6.03707031 3.1296582 -6.03707031 3.1296582 -5.0546875 2.56054688 C-3.40795062 1.63554928 -1.70654812 0.80935554 0 0 Z " fill="#D71F79" transform="translate(230,261)"/>
<path d="M0 0 C3.3 0 6.6 0 10 0 C10.22786458 1.98567708 10.45572917 3.97135417 10.68359375 5.95703125 C10.97170735 8.19396393 10.97170735 8.19396393 12 11 C9.37050204 12.71928713 8.12809053 13.01045637 4.9375 12.75 C2 12 2 12 -1 10 C-1.40843923 7.28796348 -1.13336867 4.7562858 -1 2 C-0.34 2 0.32 2 1 2 C0.67 1.34 0.34 0.68 0 0 Z " fill="#14161A" transform="translate(261,365)"/>
<path d="M0 0 C1.43655854 -0.08131463 2.8744483 -0.13933559 4.3125 -0.1875 C5.51326172 -0.23970703 5.51326172 -0.23970703 6.73828125 -0.29296875 C9 0 9 0 10.8046875 1.29296875 C12 3 12 3 11.8125 6.5 C11 10 11 10 9 13 C2.84765625 12.4140625 2.84765625 12.4140625 1 12 C-0.26237731 9.47524538 -0.09856404 7.68799534 -0.0625 4.875 C-0.05347656 3.96492188 -0.04445312 3.05484375 -0.03515625 2.1171875 C-0.02355469 1.41851562 -0.01195312 0.71984375 0 0 Z M8 4 C9 7 9 7 9 7 Z " fill="#292A2E" transform="translate(222,365)"/>
<path d="M0 0 C6.0546875 -0.1953125 6.0546875 -0.1953125 8 0 C10 2 10 2 10.1953125 4.1640625 C10.17210937 4.97617187 10.14890625 5.78828125 10.125 6.625 C10.10695313 7.44226563 10.08890625 8.25953125 10.0703125 9.1015625 C10.03550781 10.04128906 10.03550781 10.04128906 10 11 C6.6875 12.125 6.6875 12.125 3 13 C2.01 12.34 1.02 11.68 0 11 C-0.29296875 8.3984375 -0.29296875 8.3984375 -0.1875 5.375 C-0.16042969 4.37210937 -0.13335937 3.36921875 -0.10546875 2.3359375 C-0.07066406 1.56507813 -0.03585937 0.79421875 0 0 Z M3 3 C3 3.99 3 4.98 3 6 C3.66 5.67 4.32 5.34 5 5 C4.34 4.34 3.68 3.68 3 3 Z " fill="#232327" transform="translate(277,365)"/>
<path d="M0 0 C0.66 0.33 1.32 0.66 2 1 C2 14.86 2 28.72 2 43 C0.68 42.67 -0.64 42.34 -2 42 C-0.515 41.505 -0.515 41.505 1 41 C0.67 29.12 0.34 17.24 0 5 C-5.91129203 5.98521534 -6.84340544 6.37630218 -11 10 C-11.928125 10.53625 -12.85625 11.0725 -13.8125 11.625 C-14.534375 12.07875 -15.25625 12.5325 -16 13 C-16 13.66 -16 14.32 -16 15 C-16.99 15.33 -17.98 15.66 -19 16 C-19 15.34 -19 14.68 -19 14 C-19.99 13.67 -20.98 13.34 -22 13 C-18.38273023 10.79951644 -14.755026 8.61686505 -11.125 6.4375 C-10.09246094 5.80908203 -9.05992187 5.18066406 -7.99609375 4.53320312 C-7.00996094 3.94345703 -6.02382812 3.35371094 -5.0078125 2.74609375 C-3.64100342 1.92129517 -3.64100342 1.92129517 -2.24658203 1.07983398 C-1.50520996 0.72348877 -0.76383789 0.36714355 0 0 Z " fill="#247F4C" transform="translate(236,103)"/>
<path d="M0 0 C1.4540625 0.0309375 1.4540625 0.0309375 2.9375 0.0625 C2.9375 1.72916667 2.9375 3.39583333 2.9375 5.0625 C4.39583358 6.68764468 4.39583358 6.68764468 5.9375 8.0625 C4.9375 11.0625 4.9375 11.0625 2.9375 12.0625 C2.6075 12.7225 2.2775 13.3825 1.9375 14.0625 C-2.0625 14.0625 -2.0625 14.0625 -3.75 12.875 C-5.44259429 10.53760788 -5.85684206 8.94171113 -6.0625 6.0625 C-4.16053922 0.08490896 -4.16053922 0.08490896 0 0 Z M-2.0625 7.0625 C-1.7325 7.7225 -1.4025 8.3825 -1.0625 9.0625 C-0.4025 8.7325 0.2575 8.4025 0.9375 8.0625 C-0.0525 7.7325 -1.0425 7.4025 -2.0625 7.0625 Z " fill="#242429" transform="translate(253.0625,364.9375)"/>
<path d="M0 0 C2.97 0 5.94 0 9 0 C8.67 1.32 8.34 2.64 8 4 C8.27313343 6.34114367 8.59802999 8.67750658 9 11 C6.8125 12.125 6.8125 12.125 4 13 C1.525 12.01 1.525 12.01 -1 11 C-0.67 7.37 -0.34 3.74 0 0 Z M3 7 C4 9 4 9 4 9 Z " fill="#27272D" transform="translate(334,365)"/>
<path d="M0 0 C2.375 0.3125 2.375 0.3125 5 1 C5.66 1.99 6.32 2.98 7 4 C7.33 2.68 7.66 1.36 8 0 C8.99 0 9.98 0 11 0 C11 3.63 11 7.26 11 11 C8.66666667 11 6.33333333 11 4 11 C3.01 11.495 3.01 11.495 2 12 C0 10 0 10 -0.1953125 7.6171875 C-0.17210937 6.71226562 -0.14890625 5.80734375 -0.125 4.875 C-0.10695312 3.96492188 -0.08890625 3.05484375 -0.0703125 2.1171875 C-0.04710937 1.41851562 -0.02390625 0.71984375 0 0 Z M4 6 C5 8 5 8 5 8 Z " fill="#26252A" transform="translate(205,365)"/>
<path d="M0 0 C1.175625 0.0825 2.35125 0.165 3.5625 0.25 C5.5625 3.25 5.5625 3.25 5.5625 6.25 C3.2525 6.58 0.9425 6.91 -1.4375 7.25 C1.50979537 8.40811388 1.50979537 8.40811388 4.5625 8.25 C4.2325 9.9 3.9025 11.55 3.5625 13.25 C-1.27006305 12.83578031 -3.26429218 10.78586014 -6.4375 7.25 C-4.22165842 0.3070297 -4.22165842 0.3070297 0 0 Z " fill="#1C1C1E" transform="translate(323.4375,364.75)"/>
<path d="M0 0 C1.859375 0.22265625 1.859375 0.22265625 4 1 C5.265625 2.99609375 5.265625 2.99609375 6.25 5.4375 C6.58515625 6.24058594 6.9203125 7.04367187 7.265625 7.87109375 C8 10 8 10 8 12 C4.04 12 0.08 12 -4 12 C-4.33 11.34 -4.66 10.68 -5 10 C-4.00390625 7.6171875 -4.00390625 7.6171875 -2.5625 4.875 C-1.85287109 3.50988281 -1.85287109 3.50988281 -1.12890625 2.1171875 C-0.75636719 1.41851562 -0.38382813 0.71984375 0 0 Z M1 4 C2 6 2 6 2 6 Z " fill="#232328" transform="translate(193,365)"/>
<path d="M0 0 C0.99 0 1.98 0 3 0 C3.66 0.66 4.32 1.32 5 2 C5.99 2.33 6.98 2.66 8 3 C8.33 2.01 8.66 1.02 9 0 C9.99 0.33 10.98 0.66 12 1 C11.52269162 2.4589426 11.04308958 3.91713496 10.5625 5.375 C10.29566406 6.18710937 10.02882813 6.99921875 9.75390625 7.8359375 C9 10 9 10 8 12 C6.140625 11.7421875 6.140625 11.7421875 4 11 C2.734375 9.2578125 2.734375 9.2578125 1.75 7.125 C1.24726563 6.07699219 1.24726563 6.07699219 0.734375 5.0078125 C0 3 0 3 0 0 Z M5 4 C6 7 6 7 6 7 Z " fill="#1F1E22" transform="translate(292,365)"/>
<path d="M0 0 C3.52892447 1.41156979 6.54862203 2.77384533 9.8125 4.625 C10.99779297 5.29402344 10.99779297 5.29402344 12.20703125 5.9765625 C12.79871094 6.31429687 13.39039063 6.65203125 14 7 C10 8 10 8 2 4 C2 15.88 2 27.76 2 40 C1.67 40 1.34 40 1 40 C0.67 26.8 0.34 13.6 0 0 Z " fill="#852A7D" transform="translate(213,229)"/>
<path d="M0 0 C0 10.23 0 20.46 0 31 C-1.65 30.67 -3.3 30.34 -5 30 C-3.68 29.67 -2.36 29.34 -1 29 C-1.33 20.09 -1.66 11.18 -2 2 C-5.3 4.31 -8.6 6.62 -12 9 C-13.32 8.67 -14.64 8.34 -16 8 C-13.9007236 6.6583797 -11.7962168 5.32663161 -9.6875 4 C-9.09259766 3.6184375 -8.49769531 3.236875 -7.88476562 2.84375 C-3.33984375 0 -3.33984375 0 0 0 Z " fill="#D8D658" transform="translate(278,108)"/>
<path d="M0 0 C2.02045442 0.60183749 4.02111039 1.27306096 6 2 C6.33 2.66 6.66 3.32 7 4 C5.35 4 3.7 4 2 4 C1.67 10.6 1.34 17.2 1 24 C0.34 24.33 -0.32 24.66 -1 25 C-1.02886984 21.02084841 -1.04675406 17.04172347 -1.0625 13.0625 C-1.07087891 11.92619141 -1.07925781 10.78988281 -1.08789062 9.61914062 C-1.09111328 8.53955078 -1.09433594 7.45996094 -1.09765625 6.34765625 C-1.10289307 5.34742432 -1.10812988 4.34719238 -1.11352539 3.31665039 C-1 1 -1 1 0 0 Z " fill="#FBEF47" transform="translate(293,91)"/>
<path d="M0 0 C3.3 0 6.6 0 10 0 C10 2.31 10 4.62 10 7 C8.02 7.66 6.04 8.32 4 9 C4 8.34 4 7.68 4 7 C3.34 7 2.68 7 2 7 C1.34 4.69 0.68 2.38 0 0 Z " fill="#242428" transform="translate(261,365)"/>
<path d="M0 0 C3.3 0 6.6 0 10 0 C10 0.99 10 1.98 10 3 C8.68 3 7.36 3 6 3 C6 5.97 6 8.94 6 12 C5.01 11.67 4.02 11.34 3 11 C3 9.68 3 8.36 3 7 C2.505 6.505 2.01 6.01 1.5 5.5 C1.005 5.005 0.51 4.51 0 4 C0 2.68 0 1.36 0 0 Z " fill="#222126" transform="translate(166,365)"/>
<path d="M0 0 C5.31027254 1.46032495 9.46330032 3.98320986 14 7 C11.53258609 9.64107354 9.42559084 10.79641403 6 12 C6 11.34 6 10.68 6 10 C5.34 9.67 4.68 9.34 4 9 C5.32 8.67 6.64 8.34 8 8 C6.02 7.34 4.04 6.68 2 6 C2.33 4.68 2.66 3.36 3 2 C2.01 2 1.02 2 0 2 C0 1.34 0 0.68 0 0 Z " fill="#CE493A" transform="translate(310,243)"/>
<path d="M0 0 C3.3 1.65 6.6 3.3 10 5 C6.62075466 8.84714085 2.85206381 10.93427734 -1.625 13.25 C-2.305625 13.61351563 -2.98625 13.97703125 -3.6875 14.3515625 C-8.72550517 17 -8.72550517 17 -11 17 C-11 16.34 -11 15.68 -11 15 C-10.01 15 -9.02 15 -8 15 C-8 14.34 -8 13.68 -8 13 C-6.5459375 12.566875 -6.5459375 12.566875 -5.0625 12.125 C-1.89335797 11.35785318 -1.89335797 11.35785318 -1 9 C-0.01 9 0.98 9 2 9 C2 8.34 2 7.68 2 7 C3.32 7 4.64 7 6 7 C6 6.01 6 5.02 6 4 C4.02 3.34 2.04 2.68 0 2 C0 1.34 0 0.68 0 0 Z " fill="#F6E952" transform="translate(310,100)"/>
<path d="M0 0 C0.33 1.32 0.66 2.64 1 4 C-2.4352048 6.29013653 -3.985331 6.17842973 -8 6 C-8.33 5.34 -8.66 4.68 -9 4 C-8.67 3.34 -8.34 2.68 -8 2 C-8.66 1.67 -9.32 1.34 -10 1 C-6.42181037 -1.33958553 -4.07775191 -0.9267618 0 0 Z " fill="#1B1B24" transform="translate(380,338)"/>
<path d="M0 0 C0 0.66 0 1.32 0 2 C-1.98 2.99 -3.96 3.98 -6 5 C-5.33131686 8.11332248 -5.33131686 8.11332248 -2.9375 9.1875 C-2.298125 9.455625 -1.65875 9.72375 -1 10 C-1 10.66 -1 11.32 -1 12 C-4 11 -7 10 -10 9 C-10.66 9.66 -11.32 10.32 -12 11 C-12.0625 8.3125 -12.0625 8.3125 -11 5 C-7.83686472 2.60911454 -4.06100212 0 0 0 Z " fill="#3594A6" transform="translate(188,160)"/>
<path d="M0 0 C0.66 0 1.32 0 2 0 C3.625 2 3.625 2 5 4 C4.67 4.598125 4.34 5.19625 4 5.8125 C2.79212012 8.05386471 2.79212012 8.05386471 3 11 C2.01 11.33 1.02 11.66 0 12 C-0.99 11.34 -1.98 10.68 -3 10 C-2.67 8.35 -2.34 6.7 -2 5 C-1.01 4.67 -0.02 4.34 1 4 C0.67 2.68 0.34 1.36 0 0 Z " fill="#16161C" transform="translate(280,366)"/>
<path d="M0 0 C0 0.66 0 1.32 0 2 C-0.99 2 -1.98 2 -3 2 C-4.20628008 4.33214148 -5.1654738 6.49642139 -6 9 C-5.34 9 -4.68 9 -4 9 C-4 9.66 -4 10.32 -4 11 C-9.75 9.375 -9.75 9.375 -12 6 C-10.37829621 4.99466333 -8.75252763 3.99588093 -7.125 3 C-5.76761719 2.1646875 -5.76761719 2.1646875 -4.3828125 1.3125 C-2 0 -2 0 0 0 Z " fill="#D6D746" transform="translate(262,117)"/>
<path d="M0 0 C2.97851562 0.390625 2.97851562 0.390625 5.95703125 0.78125 C8.15471706 1.053233 8.15471706 1.053233 11 1 C11.66 1.33 12.32 1.66 13 2 C13 3.98 13 5.96 13 8 C8.71 5.69 4.42 3.38 0 1 C0 0.67 0 0.34 0 0 Z " fill="#5C296E" transform="translate(200,264)"/>
<path d="M0 0 C0.66 0.33 1.32 0.66 2 1 C2.625 4.0625 2.625 4.0625 3 7 C0.22276075 7.78688445 -2.22610077 8.11949924 -5.109375 8.09765625 C-5.86347656 8.09443359 -6.61757812 8.09121094 -7.39453125 8.08789062 C-8.17183594 8.07951172 -8.94914063 8.07113281 -9.75 8.0625 C-10.54277344 8.05798828 -11.33554688 8.05347656 -12.15234375 8.04882812 C-14.10159508 8.03708565 -16.05080738 8.01915146 -18 8 C-18 7.67 -18 7.34 -18 7 C-16.51886719 6.96132813 -16.51886719 6.96132813 -15.0078125 6.921875 C-13.72648438 6.86515625 -12.44515625 6.8084375 -11.125 6.75 C-9.84882813 6.70359375 -8.57265625 6.6571875 -7.2578125 6.609375 C-3.90811895 6.37444944 -3.90811895 6.37444944 -2.5546875 3.953125 C-2.37164062 3.30859375 -2.18859375 2.6640625 -2 2 C-1.34 2 -0.68 2 0 2 C0 1.34 0 0.68 0 0 Z " fill="#121317" transform="translate(165,336)"/>
<path d="M0 0 C0 0.99 0 1.98 0 3 C1.32 3.33 2.64 3.66 4 4 C3.67 5.32 3.34 6.64 3 8 C-0.40312738 6.94124926 -3.01353231 5.99097846 -6 4 C-6 3.34 -6 2.68 -6 2 C-2.25 0 -2.25 0 0 0 Z " fill="#84BB50" transform="translate(255,163)"/>
<path d="M0 0 C0.99 0 1.98 0 3 0 C3.33 3.63 3.66 7.26 4 11 C2.68 11.33 1.36 11.66 0 12 C0 8.04 0 4.08 0 0 Z " fill="#232127" transform="translate(309,365)"/>
<path d="M0 0 C0.99 0 1.98 0 3 0 C1.71814628 3.84556115 0.21420223 4.42068027 -3.2109375 6.28125 C-5 7 -5 7 -7.4375 6.75 C-7.953125 6.5025 -8.46875 6.255 -9 6 C-8.34 4.68 -7.68 3.36 -7 2 C-6.21625 2.04125 -5.4325 2.0825 -4.625 2.125 C-1.83883881 2.28728734 -1.83883881 2.28728734 0 0 Z " fill="#3C79B2" transform="translate(185,201)"/>
<path d="M0 0 C0.66 0.66 1.32 1.32 2 2 C1.96712417 4.72869407 1.43602229 7.2966618 1 10 C0.34 10 -0.32 10 -1 10 C-1 8.68 -1 7.36 -1 6 C-3.31 6 -5.62 6 -8 6 C-5.63379989 3.38472619 -3.057952 1.73559438 0 0 Z " fill="#95BA56" transform="translate(286,144)"/>
<path d="M0 0 C0.99 0 1.98 0 3 0 C3 3.63 3 7.26 3 11 C1.68 11 0.36 11 -1 11 C-0.67 7.37 -0.34 3.74 0 0 Z " fill="#26252A" transform="translate(158,365)"/>
<path d="M0 0 C0.33 0 0.66 0 1 0 C1.33 5.94 1.66 11.88 2 18 C-5 18 -5 18 -6.9375 16.5 C-7.288125 16.005 -7.63875 15.51 -8 15 C-5.69 15 -3.38 15 -1 15 C-0.67 10.05 -0.34 5.1 0 0 Z " fill="#CA2267" transform="translate(250,273)"/>
<path d="M0 0 C1.98 0 3.96 0 6 0 C1.50898372 4.04191465 -3.58984989 6.43674441 -9 9 C-9 7.68 -9 6.36 -9 5 C-7.02 5.495 -7.02 5.495 -5 6 C-5 5.01 -5 4.02 -5 3 C-3.35 3 -1.7 3 0 3 C0 2.01 0 1.02 0 0 Z " fill="#EECD3F" transform="translate(315,156)"/>
<path d="M0 0 C3.79049707 1.42749981 7.27122456 3.16236542 10.8125 5.125 C12.27623047 5.93324219 12.27623047 5.93324219 13.76953125 6.7578125 C14.50558594 7.16773438 15.24164063 7.57765625 16 8 C12.07985588 9.30671471 10.64877466 8.36293031 6.875 6.8125 C5.79992187 6.38582031 4.72484375 5.95914063 3.6171875 5.51953125 C1 4 1 4 0.1328125 1.82421875 C0.06707031 0.92123047 0.06707031 0.92123047 0 0 Z " fill="#762D68" transform="translate(234,241)"/>
<path d="M0 0 C3.24271506 0.5590888 4.93057424 1.4132178 7 4 C7 4.66 7 5.32 7 6 C7.66 6.33 8.32 6.66 9 7 C6.6875 7.6875 6.6875 7.6875 4 8 C1.48017068 6.38010972 1.05657891 5.22117209 0.3125 2.3125 C0.209375 1.549375 0.10625 0.78625 0 0 Z " fill="#131415" transform="translate(247,371)"/>
<path d="M0 0 C0 0.66 0 1.32 0 2 C-0.99 2.33 -1.98 2.66 -3 3 C-2.67 3.99 -2.34 4.98 -2 6 C-0.845 6.33 0.31 6.66 1.5 7 C2.655 7.33 3.81 7.66 5 8 C5.33 8.99 5.66 9.98 6 11 C1.69235185 9.43358249 -2.06171464 7.31663844 -6 5 C-3.74193548 0 -3.74193548 0 0 0 Z " fill="#BE3178" transform="translate(220,268)"/>
<path d="M0 0 C1.32 0.66 2.64 1.32 4 2 C3.01 2.495 3.01 2.495 2 3 C1.30662208 6.0399648 1.30662208 6.0399648 0.875 9.5625 C0.70742188 10.76003906 0.53984375 11.95757812 0.3671875 13.19140625 C0.24601562 14.11824219 0.12484375 15.04507813 0 16 C-0.33 16 -0.66 16 -1 16 C-1.02685095 13.52076199 -1.04676547 11.0418116 -1.0625 8.5625 C-1.07506836 7.50192383 -1.07506836 7.50192383 -1.08789062 6.41992188 C-1.09653588 4.61306441 -1.05220011 2.80612397 -1 1 C-0.67 0.67 -0.34 0.34 0 0 Z " fill="#F7CC58" transform="translate(306,144)"/>
<path d="M0 0 C1.65 0 3.3 0 5 0 C4.67 1.65 4.34 3.3 4 5 C1.21176345 6.0326802 0.1322726 6.04509293 -2.75 5.0625 C-3.4925 4.711875 -4.235 4.36125 -5 4 C-4.34 3.67 -3.68 3.34 -3 3 C-2.67 2.34 -2.34 1.68 -2 1 C-2 1.66 -2 2.32 -2 3 C-1.34 2.67 -0.68 2.34 0 2 C0 1.34 0 0.68 0 0 Z " fill="#111116" transform="translate(338,372)"/>
<path d="M0 0 C2.64 0 5.28 0 8 0 C6.25 1.125 6.25 1.125 4 2 C1.75 1.125 1.75 1.125 0 0 Z M4 2 C4.33 3.65 4.66 5.3 5 7 C3.02 7 1.04 7 -1 7 C-1.33 6.34 -1.66 5.68 -2 5 C1.75 2 1.75 2 4 2 Z " fill="#1A191E" transform="translate(347,327)"/>
<path d="M0 0 C3.3 0.33 6.6 0.66 10 1 C9.67 2.65 9.34 4.3 9 6 C5.21213403 5.4739075 2.82847776 4.61896089 0 2 C0 1.34 0 0.68 0 0 Z " fill="#232227" transform="translate(318,372)"/>
<path d="M0 0 C3.65316671 1.24976756 4.78065836 1.67098753 7 5 C4.03 5 1.06 5 -2 5 C-2.33 4.34 -2.66 3.68 -3 3 C-2.01 2.01 -1.02 1.02 0 0 Z " fill="#18151C" transform="translate(191,372)"/>
<path d="M0 0 C4.75 0.875 4.75 0.875 7 2 C7 2.66 7 3.32 7 4 C6.01 4.33 5.02 4.66 4 5 C3.67 8.96 3.34 12.92 3 17 C2.67 17 2.34 17 2 17 C2 11.72 2 6.44 2 1 C1.34 0.67 0.68 0.34 0 0 Z " fill="#0B6546" transform="translate(212,145)"/>
<path d="M0 0 C0.66 0.33 1.32 0.66 2 1 C-0.89217759 5.69978858 -0.89217759 5.69978858 -4.046875 6.5546875 C-6.02330745 6.78597215 -8.01256369 6.90062818 -10 7 C-7.20283196 3.70921407 -3.80471422 1.93694542 0 0 Z " fill="#CC2E87" transform="translate(230,261)"/>
<path d="M0 0 C4.97209562 1.76429199 9.43438061 4.3939166 14 7 C10.3046875 8.140625 10.3046875 8.140625 7.5625 6.875 C4.74594901 4.81410903 2.39568493 2.53258121 0 0 Z " fill="#7A306D" transform="translate(213,229)"/>
<path d="M0 0 C0.99 0.99 1.98 1.98 3 3 C2.01 3.495 2.01 3.495 1 4 C2.32 5.32 3.64 6.64 5 8 C-1.15234375 7.4140625 -1.15234375 7.4140625 -3 7 C-3.33 6.34 -3.66 5.68 -4 5 C-3.34 4.01 -2.68 3.02 -2 2 C-1.34 2 -0.68 2 0 2 C0 1.34 0 0.68 0 0 Z " fill="#161618" transform="translate(226,370)"/>
<path d="M0 0 C0.99 0.33 1.98 0.66 3 1 C2.67 1.99 2.34 2.98 2 4 C2.66 4 3.32 4 4 4 C3.67 4.99 3.34 5.98 3 7 C2.01 7.33 1.02 7.66 0 8 C-0.66 7.34 -1.32 6.68 -2 6 C-1.34 4.02 -0.68 2.04 0 0 Z " fill="#1D1D21" transform="translate(207,369)"/>
<path d="M0 0 C2.475 0.495 2.475 0.495 5 1 C4.67 2.98 4.34 4.96 4 7 C3.01 7.33 2.02 7.66 1 8 C0.67 5.36 0.34 2.72 0 0 Z " fill="#242328" transform="translate(222,365)"/>
<path d="M0 0 C1.32 0 2.64 0 4 0 C3.67 2.64 3.34 5.28 3 8 C2.01 8 1.02 8 0 8 C-1.09658936 4.71023192 -0.79953138 3.28696233 0 0 Z " fill="#F8CE0A" transform="translate(308,149)"/>
<path d="M0 0 C0.7425 0.185625 1.485 0.37125 2.25 0.5625 C4.94990963 0.99203108 6.44631077 0.85122974 9 0 C6.45543849 2.96865509 3.51005335 4.3619751 0 6 C0 4.02 0 2.04 0 0 Z " fill="#BF3A4F" transform="translate(282,269)"/>
<path d="M0 0 C0 0.66 0 1.32 0 2 C-0.99 2 -1.98 2 -3 2 C-2.0022242 4.99332739 -1.2477975 5.94766315 1 8 C-1.9375 7.25 -1.9375 7.25 -5 6 C-5.875 3.875 -5.875 3.875 -6 2 C-3 0 -3 0 0 0 Z " fill="#512F6C" transform="translate(184,247)"/>
<path d="M0 0 C1.8125 1.5625 1.8125 1.5625 3 3 C1.35 3.33 -0.3 3.66 -2 4 C-2 3.01 -2 2.02 -2 1 C-3.65 1.33 -5.3 1.66 -7 2 C-7 1.34 -7 0.68 -7 0 C-4.26634878 -1.36682561 -2.89333621 -0.84683011 0 0 Z " fill="#D74736" transform="translate(300,236)"/>
<path d="M0 0 C0.99 0.33 1.98 0.66 3 1 C2.67 2.65 2.34 4.3 2 6 C0.68 6 -0.64 6 -2 6 C-1.125 1.125 -1.125 1.125 0 0 Z " fill="#2974B9" transform="translate(178,168)"/>
<path d="M0 0 C0.99 0.33 1.98 0.66 3 1 C1.515 4.465 1.515 4.465 0 8 C-0.66 7.67 -1.32 7.34 -2 7 C-1.125 1.125 -1.125 1.125 0 0 Z " fill="#27272C" transform="translate(301,365)"/>
<path d="M0 0 C2.31 0 4.62 0 7 0 C7 0.66 7 1.32 7 2 C7.66 2.33 8.32 2.66 9 3 C9 3.66 9 4.32 9 5 C6.69 4.34 4.38 3.68 2 3 C2 2.34 2 1.68 2 1 C1.34 0.67 0.68 0.34 0 0 Z " fill="#2E9EB3" transform="translate(199,179)"/>
<path d="M0 0 C0.66 0.33 1.32 0.66 2 1 C-1.9050849 4.55007718 -4.97734643 5.81819916 -10 7 C-7.20283196 3.70921407 -3.80471422 1.93694542 0 0 Z " fill="#96BC54" transform="translate(276,150)"/>
<path d="M0 0 C0 1.32 0 2.64 0 4 C-2.02045442 3.39816251 -4.02111039 2.72693904 -6 2 C-6.33 1.34 -6.66 0.68 -7 0 C-4.3333581 -1.33332095 -2.83319697 -0.67102033 0 0 Z " fill="#35407B" transform="translate(201,218)"/>
<path d="M0 0 C1.9375 0.3125 1.9375 0.3125 4 1 C4.33 1.99 4.66 2.98 5 4 C4.67 4.66 4.34 5.32 4 6 C2.35 6 0.7 6 -1 6 C-0.01 5.67 0.98 5.34 2 5 C2 4.34 2 3.68 2 3 C1.01 2.67 0.02 2.34 -1 2 C-0.67 1.34 -0.34 0.68 0 0 Z " fill="#16171F" transform="translate(417,338)"/>
<path d="M0 0 C3.37503669 1.1858237 5.64722731 2.27573689 8 5 C5.125 5.125 5.125 5.125 2 5 C1.34 4.34 0.68 3.68 0 3 C0 2.01 0 1.02 0 0 Z " fill="#0F6239" transform="translate(224,151)"/>
<path d="M0 0 C0.53625 0.2475 1.0725 0.495 1.625 0.75 C-3.79038462 4.81153846 -3.79038462 4.81153846 -6.75 4.5 C-7.28625 4.2525 -7.8225 4.005 -8.375 3.75 C-2.95961538 -0.31153846 -2.95961538 -0.31153846 0 0 Z " fill="#DBD543" transform="translate(270.375,112.25)"/>
<path d="M0 0 C0.66 0.33 1.32 0.66 2 1 C-2.30769231 5.92307692 -2.30769231 5.92307692 -5.8125 6.3125 C-6.8953125 6.1578125 -6.8953125 6.1578125 -8 6 C-5.63404067 3.38499232 -3.13950774 1.61000397 0 0 Z " fill="#A4292D" transform="translate(278,233)"/>
<path d="M0 0 C0.33 0.99 0.66 1.98 1 3 C-2.3171411 4.4216319 -5.44219804 5.39009109 -9 6 C-6.11912454 3.59927045 -3.43595166 1.52708963 0 0 Z " fill="#92BE57" transform="translate(264,157)"/>
<path d="M0 0 C0.99 0.495 0.99 0.495 2 1 C2.59355614 3.64860427 2.74209269 6.29197322 3 9 C2.01 8.67 1.02 8.34 0 8 C0 5.36 0 2.72 0 0 Z " fill="#000000" transform="translate(260,367)"/>
<path d="M0 0 C0.66 0.99 1.32 1.98 2 3 C1 4 1 4 -2.0625 4.0625 C-3.5165625 4.0315625 -3.5165625 4.0315625 -5 4 C-4.67 3.01 -4.34 2.02 -4 1 C-1.9375 0.3125 -1.9375 0.3125 0 0 Z " fill="#18181B" transform="translate(407,340)"/>
<path d="M0 0 C0.33 0.66 0.66 1.32 1 2 C1.99 2.33 2.98 2.66 4 3 C4.33 3.99 4.66 4.98 5 6 C1.62496331 4.8141763 -0.64722731 3.72426311 -3 1 C-2.01 0.67 -1.02 0.34 0 0 Z " fill="#34417B" transform="translate(180,207)"/>
<path d="M0 0 C0.33 1.32 0.66 2.64 1 4 C-1.64 4.33 -4.28 4.66 -7 5 C-4.87219421 2.65941363 -2.88437779 1.29299694 0 0 Z " fill="#309496" transform="translate(207,148)"/>
<path d="M0 0 C0.66 0.33 1.32 0.66 2 1 C0.02 1.99 0.02 1.99 -2 3 C-2 3.66 -2 4.32 -2 5 C-3.32 5.33 -4.64 5.66 -6 6 C-6.33 5.34 -6.66 4.68 -7 4 C-1.7265625 0.77734375 -1.7265625 0.77734375 0 0 Z " fill="#298354" transform="translate(207,120)"/>
<path d="M0 0 C3.3 1.65 6.6 3.3 10 5 C9.67 5.66 9.34 6.32 9 7 C8.34 7 7.68 7 7 7 C6 6 5 5 4 4 C1.90010348 2.82425289 1.90010348 2.82425289 0 2 C0 1.34 0 0.68 0 0 Z " fill="#F7F071" transform="translate(310,100)"/>
<path d="M0 0 C0.66 0 1.32 0 2 0 C2 1.98 2 3.96 2 6 C1.01 6 0.02 6 -1 6 C-1 3 -1 3 0 0 Z " fill="#212124" transform="translate(214,370)"/>
<path d="M0 0 C1 2 2 4 3 6 C0.08482708 4.92598892 -1.77810176 4.22189824 -4 2 C-2.68 1.34 -1.36 0.68 0 0 Z " fill="#33407F" transform="translate(205,220)"/>
<path d="M0 0 C0.33 0 0.66 0 1 0 C1 1.98 1 3.96 1 6 C0.34 5.67 -0.32 5.34 -1 5 C-0.67 3.35 -0.34 1.7 0 0 Z " fill="#000000" transform="translate(221,369)"/>
<path d="M0 0 C0.99 0 1.98 0 3 0 C3 0.66 3 1.32 3 2 C2.34 2 1.68 2 1 2 C0.67 2.66 0.34 3.32 0 4 C0 2.68 0 1.36 0 0 Z " fill="#000000" transform="translate(288,367)"/>
<path d="M0 0 C0.33 0 0.66 0 1 0 C1 1.65 1 3.3 1 5 C0.67 5 0.34 5 0 5 C0 3.35 0 1.7 0 0 Z " fill="#000000" transform="translate(462,337)"/>
<path d="M0 0 C1 4 1 4 1 4 Z " fill="#000000" transform="translate(275,368)"/>
<path d="" fill="#000000" transform="translate(0,0)"/>
<path d="" fill="#000000" transform="translate(0,0)"/>
<path d="" fill="#000000" transform="translate(0,0)"/>
<path d="" fill="#000000" transform="translate(0,0)"/>
<path d="" fill="#000000" transform="translate(0,0)"/>
<path d="" fill="#000000" transform="translate(0,0)"/>
<path d="" fill="#000000" transform="translate(0,0)"/>
<path d="" fill="#000000" transform="translate(0,0)"/>
<path d="" fill="#000000" transform="translate(0,0)"/>
<path d="M0 0 C2 1 2 1 2 1 Z " fill="#000000" transform="translate(256,368)"/>
<path d="" fill="#000000" transform="translate(0,0)"/>
<path d="M0 0 C2 1 2 1 2 1 Z " fill="#000000" transform="translate(347,335)"/>
<path d="" fill="#000000" transform="translate(0,0)"/>
<path d="" fill="#000000" transform="translate(0,0)"/>
<path d="" fill="#000000" transform="translate(0,0)"/>
<path d="" fill="#000000" transform="translate(0,0)"/>
<path d="" fill="#000000" transform="translate(0,0)"/>
<path d="" fill="#000000" transform="translate(0,0)"/>
<path d="" fill="#000000" transform="translate(0,0)"/>
<path d="" fill="#000000" transform="translate(0,0)"/>
<path d="" fill="#000000" transform="translate(0,0)"/>
<path d="" fill="#000000" transform="translate(0,0)"/>
<path d="" fill="#000000" transform="translate(0,0)"/>
<path d="" fill="#000000" transform="translate(0,0)"/>
<path d="" fill="#000000" transform="translate(0,0)"/>
</svg>
